<svg width="229" height="232" xmlns="http://www.w3.org/2000/svg">

 <g>
  <title>Layer 1</title>
  <g>
   <path fill="#000000" d="m106.41396,0.57055c-22.806,3.031 -44.645,9.498 -63,24.091c-11.618,9.236 -22.491,21.305 -29.405,34.485c-36.124,68.865 0.541,151.729 76.405,170.13c13.385,3.246 28.371,3.517 42,1.57c16.03,-2.29 32.573,-8.753 46,-17.765c80.331,-53.915 61.71,-181.537 -32,-208.207c-12.574,-3.578 -26.912,-6.043 -40,-4.304m62,13.576l1,1c0,16.125 0.497,33.899 -6,49l1,1c9.853,-9.508 20.237,-18.633 28,-30l2,1l1,1l0,2c-8.845,9.785 -14.041,24.671 -26.039,31.722c-6.6,3.878 -14.822,3.015 -21.961,5.278l0,2c2.798,4.67 2.019,21.267 -6.905,18.338c-8.74,-2.869 4.613,-13.186 -4.154,-16.735c-4.977,-2.014 -11.234,-0.003 -15.941,1.716c-12.524,4.574 -37.567,14.658 -38.592,30.681c-0.505,7.891 10.611,16.126 15.592,20.985c16.36,15.959 61.652,42.206 37.87,69.014c-2.892,3.261 -6.133,6.032 -9.87,8.266c-6.339,3.79 -12.995,6.452 -20,8.735l-1,-1l2,0c7.405,-5.982 16.939,-7.967 23.957,-15.04c13.097,-13.2 8.865,-26.124 -2.957,-37.96c-10.791,-10.805 -23.434,-19.385 -35.039,-29.261c-5.632,-4.792 -12.668,-9.563 -15.398,-16.739c-3.479,-9.147 2.581,-19.166 8.876,-25.572c2.411,-2.453 6.9,-4.982 7.748,-8.518c1.337,-5.58 -5.764,-14.227 -9.28,-17.87c-11.098,-11.496 -24.705,-8.59 -38.907,-11.419c-7.315,-1.457 -14.85,-5.538 -21,-9.621l1,-1l1,-1c14.881,8.703 32.477,7.696 49,9l0,-2c-5.47,-5.013 -25.542,-23.368 -23,-30l2,1c9.307,6.632 18.654,12.827 25.7,22c3.37,4.387 4.82,9.753 8.067,14.17c5.353,7.281 12.734,13.236 13.233,22.83l2,0c10.028,-8.713 25.163,-12.056 38,-9l1,-1c2.577,-4.415 7.252,-4.753 12,-4l0,-3c4.785,-9.468 7.614,-20.56 9.413,-31c1.035,-6.008 0.748,-14.121 4.587,-19m-3,23l1,1l-1,-1m-42.895,50.492c5.804,-1.238 8.993,7.696 2.79,9.171c-6.289,1.495 -9.161,-7.811 -2.79,-9.171m-20.105,131.508l-1,1l1,-1m-14,5l-1,1l1,-1z"/>
  </g>
 </g>
</svg>